<svg width="32" height="35" viewBox="0 0 32 35" fill="none" xmlns="http://www.w3.org/2000/svg">
<path d="M26.1595 32.6667H4.95172C3.03748 32.6667 1.77186 30.676 2.58272 28.9406L5.05652 23.6461L10.4723 13.0891C11.0416 11.9794 11.3385 10.75 11.3385 9.50267V4.66323C11.3385 4.35736 11.0908 4.10941 10.7851 4.10941C10.4795 4.10941 10.2318 3.86145 10.2318 3.55558V3.22138C10.2318 2.73093 10.629 2.33334 11.1191 2.33334H19.8987C20.3888 2.33334 20.786 2.73093 20.786 3.22138V3.60232C20.786 3.88238 20.5592 4.10941 20.2793 4.10941C19.9995 4.10941 19.7727 4.33644 19.7727 4.6165V9.47987C19.7727 10.7418 20.0766 11.9851 20.6586 13.1045L25.3013 22.0337L28.5285 28.9406C29.3393 30.676 28.0737 32.6667 26.1595 32.6667Z" fill="white"/>
<path fill-rule="evenodd" clip-rule="evenodd" d="M4.73433 23.8134L2.18463 29.2521C1.34888 31.0347 2.65334 33.0796 4.62631 33.0796H26.4848C28.4578 33.0796 29.7622 31.0347 28.9265 29.2521L25.6003 22.1571L20.8151 12.9848C20.2152 11.8349 19.902 10.5578 19.902 9.26152V4.26575C19.902 3.97807 20.1358 3.74486 20.4242 3.74486C20.7127 3.74486 20.9465 3.51164 20.9465 3.22396V2.83265C20.9465 2.4689 20.733 2.15488 20.4242 2.0084C20.3054 1.952 20.1723 1.92044 20.0319 1.92044H10.9829C10.8612 1.92044 10.745 1.94417 10.6387 1.98725C10.3042 2.12287 10.0684 2.45029 10.0684 2.83265V3.17595C10.0684 3.49015 10.3237 3.74486 10.6387 3.74486C10.9537 3.74486 11.2091 3.99956 11.2091 4.31376V9.28494C11.2091 10.5662 10.9031 11.8291 10.3163 12.969L4.73433 23.8134ZM3.00533 22.9678L8.60357 12.0918C9.05059 11.2234 9.28376 10.2612 9.28376 9.28494V5.2668C8.59728 4.82327 8.14306 4.05252 8.14306 3.17595V2.83265C8.14306 1.26822 9.4145 0 10.9829 0H20.0319C21.6003 0 22.8718 1.26822 22.8718 2.83265V3.22396C22.8718 4.05161 22.4589 4.78306 21.8274 5.22456V9.26152C21.8274 10.2491 22.066 11.2222 22.523 12.0983L27.327 21.3067L30.6705 28.4386C32.1032 31.4946 29.867 35 26.4848 35H4.62631C1.24409 35 -0.992133 31.4946 0.440573 28.4386L3.00533 22.9678Z" fill="white"/>
<path d="M26.1595 32.6667H4.95172C3.03748 32.6667 1.77186 30.676 2.58272 28.9406L5.05652 23.6461L10.4723 13.0891C11.0416 11.9794 11.3385 10.75 11.3385 9.50267V4.66323C11.3385 4.35736 11.0908 4.10941 10.7851 4.10941C10.4795 4.10941 10.2318 3.86145 10.2318 3.55558V3.22138C10.2318 2.73093 10.629 2.33334 11.1191 2.33334H19.8987C20.3888 2.33334 20.786 2.73093 20.786 3.22138V3.60232C20.786 3.88238 20.5592 4.10941 20.2793 4.10941C19.9995 4.10941 19.7727 4.33644 19.7727 4.6165V9.47987C19.7727 10.7418 20.0766 11.9851 20.6586 13.1045L25.3013 22.0337L28.5285 28.9406C29.3393 30.676 28.0737 32.6667 26.1595 32.6667Z" fill="white"/>
<path fill-rule="evenodd" clip-rule="evenodd" d="M5.05652 23.6461L2.58272 28.9406C1.77186 30.676 3.03748 32.6667 4.95172 32.6667H26.1595C28.0737 32.6667 29.3393 30.676 28.5285 28.9406L25.3013 22.0337L20.6586 13.1045C20.0766 11.9851 19.7727 10.7418 19.7727 9.47987V4.6165C19.7727 4.33644 19.9995 4.10941 20.2793 4.10941C20.5592 4.10941 20.786 3.88238 20.786 3.60232V3.22138C20.786 2.86727 20.5789 2.56157 20.2793 2.41897C20.164 2.36407 20.0349 2.33334 19.8987 2.33334H11.1191C11.001 2.33334 10.8882 2.35644 10.7851 2.39838C10.4606 2.53041 10.2318 2.84915 10.2318 3.22138V3.55558C10.2318 3.86145 10.4795 4.10941 10.7851 4.10941C11.0908 4.10941 11.3385 4.35736 11.3385 4.66323V9.50267C11.3385 10.75 11.0416 11.9794 10.4723 13.0891L5.05652 23.6461ZM13.1629 4.20289C13.1915 4.35193 13.2065 4.50583 13.2065 4.66323V9.50267C13.2065 11.047 12.8389 12.5691 12.1341 13.943L8.04347 21.9169L12.2201 20.848C14.4759 20.2707 16.8456 20.3141 19.0788 20.9736C20.31 21.3372 21.5926 21.4827 22.8692 21.4061L19.0015 13.9675C18.2809 12.5816 17.9047 11.0422 17.9047 9.47987V4.6165C17.9047 4.47542 17.9169 4.33721 17.9405 4.20289H13.1629ZM6.73404 24.4693L6.90392 24.1382L12.6829 22.6592C14.6126 22.1654 16.6398 22.2025 18.5501 22.7667C20.2477 23.268 22.029 23.4147 23.7836 23.1989L26.8363 29.7325C27.068 30.2284 26.7064 30.7971 26.1595 30.7971H4.95172C4.40479 30.7971 4.04318 30.2284 4.27486 29.7325L6.73404 24.4693Z" fill="black"/>
<path d="M4.95172 32.6667H26.1595C28.0737 32.6667 29.3393 30.7662 28.5285 29.1093L25.3013 22.5151L24.7736 22.5895C22.5514 22.9029 20.2831 22.5051 18.3223 21.4581C14.4502 19.3906 9.62284 19.9571 6.38952 22.8584L5.05652 24.0545L2.58272 29.1093C1.77186 30.7662 3.03748 32.6667 4.95172 32.6667Z" fill="black"/>
<path fill-rule="evenodd" clip-rule="evenodd" d="M4.95172 32.4882H26.1595C27.937 32.4882 29.1122 30.7234 28.3593 29.1849L25.191 22.7111L24.8009 22.7661C22.5379 23.0852 20.228 22.6801 18.2311 21.6139C14.4302 19.5843 9.69138 20.1404 6.5174 22.9885L5.21054 24.1612L2.75194 29.1849C1.99899 30.7234 3.17422 32.4882 4.95172 32.4882ZM5.05652 24.0545L6.38952 22.8584C9.62284 19.9571 14.4502 19.3906 18.3223 21.4581C20.2831 22.5051 22.5514 22.9029 24.7736 22.5895L25.3013 22.5151L28.5285 29.1093C29.3393 30.7662 28.0737 32.6667 26.1595 32.6667H4.95172C3.03748 32.6667 1.77186 30.7662 2.58272 29.1093L5.05652 24.0545Z" fill="black"/>
<path d="M22.1171 29.3091L20.6683 29.6934L19.187 24.1088L17.5997 25.104L17.2872 23.9259L20.0229 22.0412L20.1783 22L22.1171 29.3091Z" fill="white"/>
<path d="M13.6405 28.4622C13.4295 29.4829 13.0569 30.22 12.5226 30.6734C11.9883 31.1269 11.3139 31.2694 10.4994 31.101C9.695 30.9347 9.13472 30.5422 8.81855 29.9236C8.50239 29.3049 8.44159 28.4994 8.63617 27.507L8.91704 26.1483C9.13014 25.1175 9.50482 24.379 10.0411 23.9331C10.5807 23.4878 11.2527 23.3483 12.0571 23.5146C12.8615 23.6809 13.4218 24.0733 13.738 24.692C14.0548 25.3073 14.116 26.1111 13.9214 27.1035L13.6405 28.4622ZM12.4835 26.6688C12.6099 26.0571 12.6173 25.5952 12.5056 25.2831C12.398 24.9683 12.1668 24.7743 11.8119 24.7009C11.4671 24.6296 11.1844 24.7104 10.9635 24.9432C10.7468 25.1732 10.575 25.5695 10.4482 26.1318L10.0772 27.9265C9.95285 28.5281 9.94139 28.9927 10.0428 29.3203C10.1484 29.6452 10.3819 29.845 10.7436 29.9198C11.1018 29.9938 11.3894 29.907 11.6062 29.6593C11.8231 29.4116 11.9946 28.9995 12.1209 28.423L12.4835 26.6688Z" fill="white"/>
</svg>
