<svg width="108" height="38" viewBox="0 0 108 38" fill="none" xmlns="http://www.w3.org/2000/svg">
<path d="M26.1595 34.6667H4.95172C3.03748 34.6667 1.77186 32.676 2.58272 30.9406L5.05652 25.6461L10.4723 15.0891C11.0416 13.9794 11.3385 12.75 11.3385 11.5027V6.66323C11.3385 6.35736 11.0908 6.10941 10.7851 6.10941C10.4795 6.10941 10.2318 5.86145 10.2318 5.55558V5.22138C10.2318 4.73093 10.629 4.33334 11.1191 4.33334H19.8987C20.3888 4.33334 20.786 4.73093 20.786 5.22138V5.60232C20.786 5.88238 20.5592 6.10941 20.2793 6.10941C19.9995 6.10941 19.7727 6.33644 19.7727 6.6165V11.4799C19.7727 12.7418 20.0766 13.9851 20.6586 15.1045L25.3013 24.0337L28.5285 30.9406C29.3393 32.676 28.0737 34.6667 26.1595 34.6667Z" fill="white"/>
<path fill-rule="evenodd" clip-rule="evenodd" d="M4.73433 25.8134L2.18463 31.2521C1.34888 33.0347 2.65334 35.0796 4.62631 35.0796H26.4848C28.4578 35.0796 29.7622 33.0347 28.9265 31.2521L25.6003 24.1571L20.8151 14.9848C20.2152 13.8349 19.902 12.5578 19.902 11.2615V6.26575C19.902 5.97807 20.1358 5.74486 20.4242 5.74486C20.7127 5.74486 20.9465 5.51164 20.9465 5.22396V4.83265C20.9465 4.4689 20.733 4.15488 20.4242 4.0084C20.3054 3.952 20.1723 3.92044 20.0319 3.92044H10.9829C10.8612 3.92044 10.745 3.94417 10.6387 3.98725C10.3042 4.12287 10.0684 4.45029 10.0684 4.83265V5.17595C10.0684 5.49015 10.3237 5.74486 10.6387 5.74486C10.9537 5.74486 11.2091 5.99956 11.2091 6.31376V11.2849C11.2091 12.5662 10.9031 13.8291 10.3163 14.969L4.73433 25.8134ZM3.00533 24.9678L8.60357 14.0918C9.05059 13.2234 9.28376 12.2612 9.28376 11.2849V7.2668C8.59728 6.82327 8.14306 6.05252 8.14306 5.17595V4.83265C8.14306 3.26822 9.4145 2 10.9829 2H20.0319C21.6003 2 22.8718 3.26822 22.8718 4.83265V5.22396C22.8718 6.05161 22.4589 6.78306 21.8274 7.22456V11.2615C21.8274 12.2491 22.066 13.2222 22.523 14.0983L27.327 23.3067L30.6705 30.4386C32.1032 33.4946 29.867 37 26.4848 37H4.62631C1.24409 37 -0.992133 33.4946 0.440573 30.4386L3.00533 24.9678Z" fill="white"/>
<path d="M26.1595 34.6667H4.95172C3.03748 34.6667 1.77186 32.676 2.58272 30.9406L5.05652 25.6461L10.4723 15.0891C11.0416 13.9794 11.3385 12.75 11.3385 11.5027V6.66323C11.3385 6.35736 11.0908 6.10941 10.7851 6.10941C10.4795 6.10941 10.2318 5.86145 10.2318 5.55558V5.22138C10.2318 4.73093 10.629 4.33334 11.1191 4.33334H19.8987C20.3888 4.33334 20.786 4.73093 20.786 5.22138V5.60232C20.786 5.88238 20.5592 6.10941 20.2793 6.10941C19.9995 6.10941 19.7727 6.33644 19.7727 6.6165V11.4799C19.7727 12.7418 20.0766 13.9851 20.6586 15.1045L25.3013 24.0337L28.5285 30.9406C29.3393 32.676 28.0737 34.6667 26.1595 34.6667Z" fill="white"/>
<path fill-rule="evenodd" clip-rule="evenodd" d="M5.05652 25.6461L2.58272 30.9406C1.77186 32.676 3.03748 34.6667 4.95172 34.6667H26.1595C28.0737 34.6667 29.3393 32.676 28.5285 30.9406L25.3013 24.0337L20.6586 15.1045C20.0766 13.9851 19.7727 12.7418 19.7727 11.4799V6.6165C19.7727 6.33644 19.9995 6.10941 20.2793 6.10941C20.5592 6.10941 20.786 5.88238 20.786 5.60232V5.22138C20.786 4.86727 20.5789 4.56157 20.2793 4.41897C20.164 4.36407 20.0349 4.33334 19.8987 4.33334H11.1191C11.001 4.33334 10.8882 4.35644 10.7851 4.39838C10.4606 4.53041 10.2318 4.84915 10.2318 5.22138V5.55558C10.2318 5.86145 10.4795 6.10941 10.7851 6.10941C11.0908 6.10941 11.3385 6.35736 11.3385 6.66323V11.5027C11.3385 12.75 11.0416 13.9794 10.4723 15.0891L5.05652 25.6461ZM13.1629 6.20289C13.1915 6.35193 13.2065 6.50583 13.2065 6.66323V11.5027C13.2065 13.047 12.8389 14.5691 12.1341 15.943L8.04347 23.9169L12.2201 22.848C14.4759 22.2707 16.8456 22.3141 19.0788 22.9736C20.31 23.3372 21.5926 23.4827 22.8692 23.4061L19.0015 15.9675C18.2809 14.5816 17.9047 13.0422 17.9047 11.4799V6.6165C17.9047 6.47542 17.9169 6.33721 17.9405 6.20289H13.1629ZM6.73404 26.4693L6.90392 26.1382L12.6829 24.6592C14.6126 24.1654 16.6398 24.2025 18.5501 24.7667C20.2477 25.268 22.029 25.4147 23.7836 25.1989L26.8363 31.7325C27.068 32.2284 26.7064 32.7971 26.1595 32.7971H4.95172C4.40479 32.7971 4.04318 32.2284 4.27486 31.7325L6.73404 26.4693Z" fill="black"/>
<path d="M4.95172 34.6667H26.1595C28.0737 34.6667 29.3393 32.7662 28.5285 31.1093L25.3013 24.5151L24.7736 24.5895C22.5514 24.9029 20.2831 24.5051 18.3223 23.4581C14.4502 21.3906 9.62284 21.9571 6.38952 24.8584L5.05652 26.0545L2.58272 31.1093C1.77186 32.7662 3.03748 34.6667 4.95172 34.6667Z" fill="black"/>
<path fill-rule="evenodd" clip-rule="evenodd" d="M4.95172 34.4882H26.1595C27.937 34.4882 29.1122 32.7234 28.3593 31.1849L25.191 24.7111L24.8009 24.7661C22.5379 25.0852 20.228 24.6801 18.2311 23.6139C14.4302 21.5843 9.69138 22.1404 6.5174 24.9885L5.21054 26.1612L2.75194 31.1849C1.99899 32.7234 3.17422 34.4882 4.95172 34.4882ZM5.05652 26.0545L6.38952 24.8584C9.62284 21.9571 14.4502 21.3906 18.3223 23.4581C20.2831 24.5051 22.5514 24.9029 24.7736 24.5895L25.3013 24.5151L28.5285 31.1093C29.3393 32.7662 28.0737 34.6667 26.1595 34.6667H4.95172C3.03748 34.6667 1.77186 32.7662 2.58272 31.1093L5.05652 26.0545Z" fill="black"/>
<path d="M22.1171 31.3091L20.6683 31.6934L19.187 26.1088L17.5997 27.104L17.2872 25.9259L20.0229 24.0412L20.1783 24L22.1171 31.3091Z" fill="white"/>
<path d="M13.6405 30.4622C13.4295 31.4829 13.0569 32.22 12.5226 32.6734C11.9883 33.1269 11.3139 33.2694 10.4994 33.101C9.695 32.9347 9.13472 32.5422 8.81855 31.9236C8.50239 31.3049 8.44159 30.4994 8.63617 29.507L8.91704 28.1483C9.13014 27.1175 9.50482 26.379 10.0411 25.9331C10.5807 25.4878 11.2527 25.3483 12.0571 25.5146C12.8615 25.6809 13.4218 26.0733 13.738 26.692C14.0548 27.3073 14.116 28.1111 13.9214 29.1035L13.6405 30.4622ZM12.4835 28.6688C12.6099 28.0571 12.6173 27.5952 12.5056 27.2831C12.398 26.9683 12.1668 26.7743 11.8119 26.7009C11.4671 26.6296 11.1844 26.7104 10.9635 26.9432C10.7468 27.1732 10.575 27.5695 10.4482 28.1318L10.0772 29.9265C9.95285 30.5281 9.94139 30.9927 10.0428 31.3203C10.1484 31.6452 10.3819 31.845 10.7436 31.9198C11.1018 31.9938 11.3894 31.907 11.6062 31.6593C11.8231 31.4116 11.9946 30.9995 12.1209 30.423L12.4835 28.6688Z" fill="white"/>
<path d="M41.032 2.08599L40.598 1.14799H41.634C41.9046 1.73599 42.1333 2.24465 42.32 2.67399C42.5066 3.09399 42.6653 3.46266 42.796 3.77999C42.9266 4.08799 43.034 4.34932 43.118 4.56399C43.202 4.77866 43.272 4.96065 43.328 5.10999C43.384 4.82999 43.4493 4.57799 43.524 4.35399C43.608 4.12066 43.7106 3.86399 43.832 3.58399C43.9533 3.29465 44.098 2.96332 44.266 2.58999C44.4433 2.20732 44.6533 1.72666 44.896 1.14799H46.1L43.328 7.34999C43.16 7.00466 43.0013 6.66399 42.852 6.32799C42.712 5.98266 42.572 5.64199 42.432 5.30599C42.3013 4.96999 42.1613 4.63399 42.012 4.29799C41.872 3.96199 41.718 3.61666 41.55 3.26199L39.772 7.34999L37.126 1.14799H38.33C38.5726 1.72666 38.7733 2.20732 38.932 2.58999C39.0906 2.97265 39.2213 3.30399 39.324 3.58399C39.436 3.86399 39.5246 4.12066 39.59 4.35399C39.6553 4.57799 39.716 4.82999 39.772 5.10999C39.8093 4.99799 39.8513 4.87199 39.898 4.73199C39.954 4.59199 40.024 4.41466 40.108 4.19999C40.2013 3.97599 40.3226 3.69599 40.472 3.35999C40.6213 3.02399 40.808 2.59932 41.032 2.08599Z" fill="#F2F2F2"/>
<path d="M46.4164 4.12999C46.4164 3.70066 46.4957 3.29932 46.6544 2.92599C46.8224 2.54332 47.0464 2.21199 47.3264 1.93199C47.6064 1.64266 47.9284 1.41399 48.2924 1.24599C48.6657 1.07799 49.0624 0.993988 49.4824 0.993988C49.7624 0.993988 50.0191 1.03132 50.2524 1.10599C50.4857 1.17132 50.6864 1.25532 50.8544 1.35799C51.0224 1.46066 51.1577 1.56799 51.2604 1.67999C51.3631 1.79199 51.4331 1.88999 51.4704 1.97399L51.5264 1.14799H52.6744V6.99999H51.4704V6.25799C51.4237 6.33266 51.3491 6.42132 51.2464 6.52399C51.1437 6.62666 51.0084 6.72466 50.8404 6.81799C50.6817 6.90199 50.4904 6.97666 50.2664 7.04199C50.0424 7.10732 49.7857 7.13999 49.4964 7.13999C49.0484 7.13999 48.6331 7.06066 48.2504 6.90199C47.8771 6.73399 47.5551 6.51466 47.2844 6.24399C47.0137 5.96399 46.7991 5.64199 46.6404 5.27799C46.4911 4.91399 46.4164 4.53132 46.4164 4.12999ZM47.6204 4.05999C47.6204 4.33065 47.6671 4.58266 47.7604 4.81599C47.8631 5.04932 47.9984 5.24999 48.1664 5.41799C48.3344 5.58599 48.5351 5.72132 48.7684 5.82399C49.0017 5.91732 49.2584 5.96399 49.5384 5.96399C49.8184 5.96399 50.0751 5.91732 50.3084 5.82399C50.5511 5.72132 50.7564 5.58599 50.9244 5.41799C51.1017 5.24066 51.2371 5.03999 51.3304 4.81599C51.4237 4.58266 51.4704 4.33065 51.4704 4.05999C51.4704 3.78932 51.4237 3.54199 51.3304 3.31799C51.2371 3.08466 51.1017 2.88399 50.9244 2.71599C50.7564 2.54799 50.5511 2.41732 50.3084 2.32399C50.0751 2.22132 49.8184 2.16999 49.5384 2.16999C49.2584 2.16999 49.0017 2.22132 48.7684 2.32399C48.5351 2.41732 48.3344 2.54799 48.1664 2.71599C47.9984 2.88399 47.8631 3.08466 47.7604 3.31799C47.6671 3.54199 47.6204 3.78932 47.6204 4.05999Z" fill="#F2F2F2"/>
<path d="M54.3556 1.14799H55.4056C55.4243 1.43732 55.4383 1.70332 55.4476 1.94599C55.4663 2.17932 55.4849 2.41266 55.5036 2.64599C55.7183 2.14199 56.0216 1.74066 56.4136 1.44199C56.8149 1.14332 57.3049 0.993988 57.8836 0.993988C58.4716 0.993988 58.9429 1.15732 59.2976 1.48399C59.6523 1.81065 59.8389 2.23065 59.8576 2.74399V6.99999H58.6536V3.28999C58.6349 2.99132 58.5323 2.73932 58.3456 2.53399C58.1589 2.31932 57.8649 2.20266 57.4636 2.18399C57.1836 2.18399 56.9269 2.23532 56.6936 2.33799C56.4603 2.43132 56.2596 2.56199 56.0916 2.72999C55.9236 2.89799 55.7883 3.09866 55.6856 3.33199C55.5923 3.56532 55.5456 3.82199 55.5456 4.10199V6.99999H54.3556V1.14799Z" fill="#F2F2F2"/>
<path d="M61.4786 1.14799H62.5286C62.5473 1.43732 62.5613 1.70332 62.5706 1.94599C62.5893 2.17932 62.608 2.41266 62.6266 2.64599C62.8413 2.14199 63.1446 1.74066 63.5366 1.44199C63.938 1.14332 64.428 0.993988 65.0066 0.993988C65.5946 0.993988 66.066 1.15732 66.4206 1.48399C66.7753 1.81065 66.962 2.23065 66.9806 2.74399V6.99999H65.7766V3.28999C65.758 2.99132 65.6553 2.73932 65.4686 2.53399C65.282 2.31932 64.988 2.20266 64.5866 2.18399C64.3066 2.18399 64.05 2.23532 63.8166 2.33799C63.5833 2.43132 63.3826 2.56199 63.2146 2.72999C63.0466 2.89799 62.9113 3.09866 62.8086 3.33199C62.7153 3.56532 62.6686 3.82199 62.6686 4.10199V6.99999H61.4786V1.14799Z" fill="#F2F2F2"/>
<path d="M68.1957 4.12999C68.1957 3.70066 68.275 3.29932 68.4337 2.92599C68.6017 2.54332 68.8257 2.21199 69.1057 1.93199C69.3857 1.64266 69.7077 1.41399 70.0717 1.24599C70.445 1.07799 70.8417 0.993988 71.2617 0.993988C71.5417 0.993988 71.7984 1.03132 72.0317 1.10599C72.265 1.17132 72.4657 1.25532 72.6337 1.35799C72.8017 1.46066 72.937 1.56799 73.0397 1.67999C73.1424 1.79199 73.2124 1.88999 73.2497 1.97399L73.3057 1.14799H74.4537V6.99999H73.2497V6.25799C73.203 6.33266 73.1284 6.42132 73.0257 6.52399C72.923 6.62666 72.7877 6.72466 72.6197 6.81799C72.461 6.90199 72.2697 6.97666 72.0457 7.04199C71.8217 7.10732 71.565 7.13999 71.2757 7.13999C70.8277 7.13999 70.4124 7.06066 70.0297 6.90199C69.6564 6.73399 69.3344 6.51466 69.0637 6.24399C68.793 5.96399 68.5784 5.64199 68.4197 5.27799C68.2704 4.91399 68.1957 4.53132 68.1957 4.12999ZM69.3997 4.05999C69.3997 4.33065 69.4464 4.58266 69.5397 4.81599C69.6424 5.04932 69.7777 5.24999 69.9457 5.41799C70.1137 5.58599 70.3144 5.72132 70.5477 5.82399C70.781 5.91732 71.0377 5.96399 71.3177 5.96399C71.5977 5.96399 71.8544 5.91732 72.0877 5.82399C72.3304 5.72132 72.5357 5.58599 72.7037 5.41799C72.881 5.24066 73.0164 5.03999 73.1097 4.81599C73.203 4.58266 73.2497 4.33065 73.2497 4.05999C73.2497 3.78932 73.203 3.54199 73.1097 3.31799C73.0164 3.08466 72.881 2.88399 72.7037 2.71599C72.5357 2.54799 72.3304 2.41732 72.0877 2.32399C71.8544 2.22132 71.5977 2.16999 71.3177 2.16999C71.0377 2.16999 70.781 2.22132 70.5477 2.32399C70.3144 2.41732 70.1137 2.54799 69.9457 2.71599C69.7777 2.88399 69.6424 3.08466 69.5397 3.31799C69.4464 3.54199 69.3997 3.78932 69.3997 4.05999Z" fill="#F2F2F2"/>
<path d="M48.2131 19.558C48.3438 19.7167 48.4651 19.8707 48.5771 20.02C48.6984 20.16 48.8198 20.3093 48.9411 20.468C48.6798 20.6733 48.3858 20.8367 48.0591 20.958C47.7324 21.0793 47.3778 21.14 46.9951 21.14C46.5658 21.14 46.1598 21.0607 45.7771 20.902C45.4038 20.734 45.0771 20.51 44.7971 20.23C44.5171 19.95 44.2931 19.6233 44.1251 19.25C43.9664 18.8767 43.8871 18.48 43.8871 18.06C43.8871 17.64 43.9664 17.2433 44.1251 16.87C44.2931 16.4967 44.5171 16.1747 44.7971 15.904C45.0771 15.624 45.4038 15.4047 45.7771 15.246C46.1598 15.078 46.5658 14.994 46.9951 14.994C47.3871 14.994 47.7464 15.0547 48.0731 15.176C48.4091 15.2973 48.7124 15.4607 48.9831 15.666L48.2131 16.576C48.0544 16.4453 47.8724 16.3473 47.6671 16.282C47.4618 16.2073 47.2378 16.17 46.9951 16.17C46.7151 16.17 46.4584 16.2213 46.2251 16.324C45.9918 16.4173 45.7864 16.548 45.6091 16.716C45.4411 16.884 45.3104 17.0847 45.2171 17.318C45.1238 17.542 45.0771 17.7893 45.0771 18.06C45.0771 18.3307 45.1238 18.5827 45.2171 18.816C45.3104 19.04 45.4411 19.2407 45.6091 19.418C45.7864 19.586 45.9918 19.7213 46.2251 19.824C46.4584 19.9173 46.7151 19.964 46.9951 19.964C47.2378 19.964 47.4618 19.9313 47.6671 19.866C47.8724 19.7913 48.0544 19.6887 48.2131 19.558Z" fill="#F2F2F2"/>
<path d="M50.1173 10.122H51.3073V16.562C51.5127 16.0953 51.802 15.722 52.1753 15.442C52.5487 15.1527 53.0293 15.0033 53.6173 14.994C54.2147 14.9847 54.6907 15.1433 55.0453 15.47C55.4093 15.7967 55.6007 16.2213 55.6193 16.744V21H54.4153V17.29C54.3967 16.9913 54.294 16.7393 54.1073 16.534C53.9207 16.3193 53.6267 16.2027 53.2253 16.184C52.9453 16.184 52.6887 16.2353 52.4553 16.338C52.222 16.4313 52.0213 16.562 51.8533 16.73C51.6853 16.898 51.55 17.0987 51.4473 17.332C51.354 17.5653 51.3073 17.822 51.3073 18.102V21H50.1173V10.122Z" fill="#F2F2F2"/>
<path d="M62.1964 20.314C61.9164 20.566 61.5757 20.7667 61.1744 20.916C60.773 21.0653 60.3624 21.14 59.9424 21.14C59.513 21.14 59.107 21.0607 58.7244 20.902C58.351 20.734 58.0244 20.5147 57.7444 20.244C57.4644 19.964 57.2404 19.6373 57.0724 19.264C56.9137 18.8907 56.8344 18.494 56.8344 18.074C56.8344 17.654 56.9137 17.2573 57.0724 16.884C57.2404 16.5107 57.4644 16.184 57.7444 15.904C58.0244 15.624 58.3464 15.4047 58.7104 15.246C59.0837 15.078 59.4804 14.994 59.9004 14.994C60.563 14.994 61.137 15.1947 61.6224 15.596C62.117 15.988 62.4717 16.506 62.6864 17.15C62.397 17.2527 62.0657 17.3787 61.6924 17.528C61.319 17.6773 60.9317 17.836 60.5304 18.004C60.129 18.1627 59.7277 18.3213 59.3264 18.48C58.925 18.6387 58.5517 18.7833 58.2064 18.914C58.365 19.2313 58.5937 19.488 58.8924 19.684C59.2004 19.8707 59.541 19.964 59.9144 19.964C60.1664 19.964 60.4184 19.9173 60.6704 19.824C60.9317 19.7307 61.1417 19.6047 61.3004 19.446L62.1964 20.314ZM61.1884 16.87C61.0764 16.6367 60.899 16.464 60.6564 16.352C60.4137 16.2307 60.1664 16.17 59.9144 16.17C59.6437 16.17 59.3917 16.2213 59.1584 16.324C58.9344 16.4267 58.7384 16.5667 58.5704 16.744C58.4024 16.912 58.267 17.108 58.1644 17.332C58.071 17.556 58.0244 17.7847 58.0244 18.018C58.0244 18.0647 58.0244 18.0973 58.0244 18.116C58.0337 18.1347 58.0384 18.1487 58.0384 18.158C58.281 18.0647 58.5424 17.962 58.8224 17.85C59.1117 17.7287 59.3964 17.612 59.6764 17.5C59.9564 17.3787 60.227 17.2667 60.4884 17.164C60.7497 17.052 60.983 16.954 61.1884 16.87Z" fill="#F2F2F2"/>
<path d="M67.6408 19.558C67.7715 19.7167 67.8928 19.8707 68.0048 20.02C68.1262 20.16 68.2475 20.3093 68.3688 20.468C68.1075 20.6733 67.8135 20.8367 67.4868 20.958C67.1602 21.0793 66.8055 21.14 66.4228 21.14C65.9935 21.14 65.5875 21.0607 65.2048 20.902C64.8315 20.734 64.5048 20.51 64.2248 20.23C63.9448 19.95 63.7208 19.6233 63.5528 19.25C63.3942 18.8767 63.3148 18.48 63.3148 18.06C63.3148 17.64 63.3942 17.2433 63.5528 16.87C63.7208 16.4967 63.9448 16.1747 64.2248 15.904C64.5048 15.624 64.8315 15.4047 65.2048 15.246C65.5875 15.078 65.9935 14.994 66.4228 14.994C66.8148 14.994 67.1742 15.0547 67.5008 15.176C67.8368 15.2973 68.1402 15.4607 68.4108 15.666L67.6408 16.576C67.4822 16.4453 67.3002 16.3473 67.0948 16.282C66.8895 16.2073 66.6655 16.17 66.4228 16.17C66.1428 16.17 65.8862 16.2213 65.6528 16.324C65.4195 16.4173 65.2142 16.548 65.0368 16.716C64.8688 16.884 64.7382 17.0847 64.6448 17.318C64.5515 17.542 64.5048 17.7893 64.5048 18.06C64.5048 18.3307 64.5515 18.5827 64.6448 18.816C64.7382 19.04 64.8688 19.2407 65.0368 19.418C65.2142 19.586 65.4195 19.7213 65.6528 19.824C65.8862 19.9173 66.1428 19.964 66.4228 19.964C66.6655 19.964 66.8895 19.9313 67.0948 19.866C67.3002 19.7913 67.4822 19.6887 67.6408 19.558Z" fill="#F2F2F2"/>
<path d="M73.7031 14.994L74.4171 15.708C74.0624 16.0347 73.7217 16.352 73.3951 16.66C73.0777 16.968 72.7417 17.29 72.3871 17.626C72.8071 18.186 73.2177 18.7507 73.6191 19.32C74.0204 19.88 74.4264 20.44 74.8371 21H73.4651C73.1477 20.5613 72.8257 20.132 72.4991 19.712C72.1817 19.2827 71.8644 18.8487 71.5471 18.41L70.7351 19.152V21H69.5451V10.122H70.7351V17.752C71.2577 17.276 71.7571 16.8187 72.2331 16.38C72.7091 15.932 73.1991 15.47 73.7031 14.994Z" fill="#F2F2F2"/>
<path d="M54.0082 29.666L53.3782 30.506C53.3689 30.4967 53.3362 30.4733 53.2802 30.436C53.2242 30.3987 53.1496 30.3613 53.0562 30.324C52.9722 30.2867 52.8696 30.254 52.7482 30.226C52.6362 30.1887 52.5196 30.17 52.3982 30.17C52.2396 30.17 52.0809 30.2073 51.9222 30.282C51.7729 30.3567 51.6982 30.4967 51.6982 30.702C51.6982 30.8793 51.7589 31.024 51.8802 31.136C52.0109 31.248 52.1696 31.3507 52.3562 31.444C52.5429 31.528 52.7436 31.6167 52.9582 31.71C53.1822 31.8033 53.3876 31.92 53.5742 32.06C53.7609 32.1907 53.9149 32.3587 54.0362 32.564C54.1669 32.76 54.2322 33.012 54.2322 33.32C54.2322 33.8427 54.0502 34.2767 53.6862 34.622C53.3316 34.958 52.8416 35.126 52.2162 35.126C51.8522 35.126 51.4929 35.0653 51.1382 34.944C50.7929 34.8133 50.5129 34.6267 50.2982 34.384C50.3636 34.3187 50.4336 34.2347 50.5082 34.132C50.5922 34.0293 50.6716 33.9313 50.7462 33.838C50.8302 33.7447 50.8956 33.67 50.9422 33.614C50.9982 33.5487 51.0309 33.516 51.0402 33.516C51.0402 33.5253 51.0729 33.5533 51.1382 33.6C51.2129 33.6467 51.3062 33.698 51.4182 33.754C51.5302 33.8007 51.6562 33.8473 51.7962 33.894C51.9362 33.9313 52.0762 33.95 52.2162 33.95C52.4402 33.95 52.6316 33.894 52.7902 33.782C52.9489 33.67 53.0282 33.5207 53.0282 33.334C53.0282 33.166 52.9629 33.0353 52.8322 32.942C52.7109 32.8393 52.5569 32.746 52.3702 32.662C52.1836 32.578 51.9782 32.494 51.7542 32.41C51.5302 32.3167 51.3249 32.2 51.1382 32.06C50.9516 31.92 50.7929 31.7473 50.6622 31.542C50.5409 31.3273 50.4802 31.052 50.4802 30.716C50.4802 30.3987 50.5362 30.1327 50.6482 29.918C50.7696 29.7033 50.9189 29.5307 51.0962 29.4C51.2829 29.26 51.4882 29.162 51.7122 29.106C51.9362 29.0407 52.1509 29.008 52.3562 29.008C52.6269 29.008 52.9162 29.064 53.2242 29.176C53.5322 29.288 53.7936 29.4513 54.0082 29.666Z" fill="#F2F2F2"/>
<path d="M55.098 32.06C55.098 31.64 55.1774 31.2433 55.336 30.87C55.504 30.4967 55.728 30.1747 56.008 29.904C56.288 29.624 56.6147 29.4047 56.988 29.246C57.3707 29.078 57.7814 28.994 58.22 28.994C58.6587 28.994 59.0647 29.078 59.438 29.246C59.8207 29.4047 60.1474 29.624 60.418 29.904C60.698 30.1747 60.9127 30.4967 61.062 30.87C61.2207 31.2433 61.3 31.64 61.3 32.06C61.3 32.48 61.2207 32.8767 61.062 33.25C60.9127 33.6233 60.698 33.95 60.418 34.23C60.1474 34.51 59.8207 34.734 59.438 34.902C59.0647 35.0607 58.654 35.14 58.206 35.14C57.7767 35.14 57.3707 35.0653 56.988 34.916C56.6147 34.7667 56.288 34.5567 56.008 34.286C55.728 34.0153 55.504 33.6933 55.336 33.32C55.1774 32.9373 55.098 32.5173 55.098 32.06ZM56.288 32.074C56.288 32.3353 56.3347 32.5827 56.428 32.816C56.5307 33.04 56.666 33.2407 56.834 33.418C57.0114 33.586 57.212 33.7213 57.436 33.824C57.6694 33.9173 57.9167 33.964 58.178 33.964C58.4394 33.964 58.6867 33.9173 58.92 33.824C59.1534 33.7213 59.354 33.586 59.522 33.418C59.6994 33.2407 59.8394 33.04 59.942 32.816C60.0447 32.5827 60.096 32.3353 60.096 32.074C60.096 31.8127 60.0447 31.5653 59.942 31.332C59.8394 31.0987 59.6994 30.898 59.522 30.73C59.354 30.5527 59.1534 30.4173 58.92 30.324C58.6867 30.2213 58.4394 30.17 58.178 30.17C57.9167 30.17 57.6694 30.2213 57.436 30.324C57.212 30.4173 57.0114 30.5527 56.834 30.73C56.666 30.898 56.5307 31.0987 56.428 31.332C56.3347 31.5653 56.288 31.8127 56.288 32.074Z" fill="#F2F2F2"/>
<path d="M62.5724 29.148H63.6224C63.6411 29.4373 63.6551 29.7033 63.6644 29.946C63.6831 30.1793 63.7017 30.4127 63.7204 30.646C63.9351 30.142 64.2151 29.7453 64.5604 29.456C64.9151 29.1573 65.3864 29.0033 65.9744 28.994C66.5437 28.994 67.0011 29.1387 67.3464 29.428C67.6917 29.7173 67.8924 30.0953 67.9484 30.562C68.1817 30.086 68.4664 29.708 68.8024 29.428C69.1477 29.148 69.6097 29.0033 70.1884 28.994C70.7951 28.994 71.2711 29.1573 71.6164 29.484C71.9711 29.8107 72.1577 30.2307 72.1764 30.744V35H70.9724V31.29C70.9537 30.9913 70.8511 30.7393 70.6644 30.534C70.4871 30.3193 70.1931 30.2027 69.7824 30.184C69.2224 30.184 68.7837 30.366 68.4664 30.73C68.1491 31.0847 67.9811 31.542 67.9624 32.102V35H66.7724V31.29C66.7537 30.9913 66.6464 30.7393 66.4504 30.534C66.2637 30.3193 65.9744 30.2027 65.5824 30.184C65.3024 30.184 65.0504 30.2353 64.8264 30.338C64.6024 30.4313 64.4111 30.562 64.2524 30.73C64.0937 30.898 63.9724 31.0987 63.8884 31.332C63.8044 31.5653 63.7624 31.822 63.7624 32.102V35H62.5724V29.148Z" fill="#F2F2F2"/>
<path d="M78.753 34.314C78.473 34.566 78.1323 34.7667 77.731 34.916C77.3297 35.0653 76.919 35.14 76.499 35.14C76.0697 35.14 75.6637 35.0607 75.281 34.902C74.9077 34.734 74.581 34.5147 74.301 34.244C74.021 33.964 73.797 33.6373 73.629 33.264C73.4703 32.8907 73.391 32.494 73.391 32.074C73.391 31.654 73.4703 31.2573 73.629 30.884C73.797 30.5107 74.021 30.184 74.301 29.904C74.581 29.624 74.903 29.4047 75.267 29.246C75.6403 29.078 76.037 28.994 76.457 28.994C77.1197 28.994 77.6937 29.1947 78.179 29.596C78.6737 29.988 79.0283 30.506 79.243 31.15C78.9537 31.2527 78.6223 31.3787 78.249 31.528C77.8757 31.6773 77.4883 31.836 77.087 32.004C76.6857 32.1627 76.2843 32.3213 75.883 32.48C75.4817 32.6387 75.1083 32.7833 74.763 32.914C74.9217 33.2313 75.1503 33.488 75.449 33.684C75.757 33.8707 76.0977 33.964 76.471 33.964C76.723 33.964 76.975 33.9173 77.227 33.824C77.4883 33.7307 77.6983 33.6047 77.857 33.446L78.753 34.314ZM77.745 30.87C77.633 30.6367 77.4557 30.464 77.213 30.352C76.9703 30.2307 76.723 30.17 76.471 30.17C76.2003 30.17 75.9483 30.2213 75.715 30.324C75.491 30.4267 75.295 30.5667 75.127 30.744C74.959 30.912 74.8237 31.108 74.721 31.332C74.6277 31.556 74.581 31.7847 74.581 32.018C74.581 32.0647 74.581 32.0973 74.581 32.116C74.5903 32.1347 74.595 32.1487 74.595 32.158C74.8377 32.0647 75.099 31.962 75.379 31.85C75.6683 31.7287 75.953 31.612 76.233 31.5C76.513 31.3787 76.7837 31.2667 77.045 31.164C77.3063 31.052 77.5397 30.954 77.745 30.87Z" fill="#F2F2F2"/>
<path d="M80.7815 26.572H81.9715V29.162H83.5395V30.226H81.9715V35H80.7815V30.226H79.7315V29.162H80.7815V26.572Z" fill="#F2F2F2"/>
<path d="M84.5294 24.122H85.7194V30.562C85.9248 30.0953 86.2141 29.722 86.5874 29.442C86.9608 29.1527 87.4414 29.0033 88.0294 28.994C88.6268 28.9847 89.1028 29.1433 89.4574 29.47C89.8214 29.7967 90.0128 30.2213 90.0314 30.744V35H88.8274V31.29C88.8088 30.9913 88.7061 30.7393 88.5194 30.534C88.3328 30.3193 88.0388 30.2027 87.6374 30.184C87.3574 30.184 87.1008 30.2353 86.8674 30.338C86.6341 30.4313 86.4334 30.562 86.2654 30.73C86.0974 30.898 85.9621 31.0987 85.8594 31.332C85.7661 31.5653 85.7194 31.822 85.7194 32.102V35H84.5294V24.122Z" fill="#F2F2F2"/>
<path d="M91.4985 26.908C91.4985 26.684 91.5778 26.4973 91.7365 26.348C91.9045 26.1987 92.0818 26.124 92.2685 26.124C92.4551 26.124 92.6278 26.1987 92.7865 26.348C92.9451 26.4973 93.0245 26.684 93.0245 26.908C93.0245 27.132 92.9451 27.3187 92.7865 27.468C92.6278 27.608 92.4551 27.678 92.2685 27.678C92.0818 27.678 91.9045 27.608 91.7365 27.468C91.5778 27.3187 91.4985 27.132 91.4985 26.908ZM92.8425 35H91.6525V29.148H92.8425V35Z" fill="#F2F2F2"/>
<path d="M94.5236 29.148H95.5736C95.5922 29.4373 95.6062 29.7033 95.6156 29.946C95.6342 30.1793 95.6529 30.4127 95.6716 30.646C95.8862 30.142 96.1896 29.7407 96.5816 29.442C96.9829 29.1433 97.4729 28.994 98.0516 28.994C98.6396 28.994 99.1109 29.1573 99.4656 29.484C99.8202 29.8107 100.007 30.2307 100.026 30.744V35H98.8216V31.29C98.8029 30.9913 98.7002 30.7393 98.5136 30.534C98.3269 30.3193 98.0329 30.2027 97.6316 30.184C97.3516 30.184 97.0949 30.2353 96.8616 30.338C96.6282 30.4313 96.4276 30.562 96.2596 30.73C96.0916 30.898 95.9562 31.0987 95.8536 31.332C95.7602 31.5653 95.7136 31.822 95.7136 32.102V35H94.5236V29.148Z" fill="#F2F2F2"/>
<path d="M101.255 32.088C101.255 31.6493 101.334 31.2433 101.493 30.87C101.651 30.4873 101.866 30.1607 102.137 29.89C102.407 29.61 102.725 29.3907 103.089 29.232C103.453 29.0733 103.84 28.994 104.251 28.994C104.568 28.994 104.848 29.036 105.091 29.12C105.343 29.204 105.553 29.302 105.721 29.414C105.889 29.526 106.019 29.638 106.113 29.75C106.215 29.8527 106.281 29.9273 106.309 29.974C106.309 29.8433 106.318 29.708 106.337 29.568C106.355 29.4187 106.365 29.2787 106.365 29.148H107.513V34.734C107.513 35.7047 107.228 36.4607 106.659 37.002C106.089 37.5433 105.319 37.814 104.349 37.814C104.013 37.814 103.709 37.7767 103.439 37.702C103.177 37.6367 102.935 37.548 102.711 37.436C102.496 37.324 102.295 37.1933 102.109 37.044C101.931 36.8947 101.754 36.7407 101.577 36.582L102.347 35.77C102.636 36.0407 102.93 36.2553 103.229 36.414C103.537 36.5727 103.901 36.652 104.321 36.652C104.946 36.652 105.431 36.5027 105.777 36.204C106.122 35.9053 106.299 35.49 106.309 34.958V34.552C106.309 34.4773 106.318 34.398 106.337 34.314C106.355 34.2207 106.365 34.1507 106.365 34.104C106.281 34.216 106.173 34.3373 106.043 34.468C105.921 34.5893 105.777 34.7013 105.609 34.804C105.441 34.8973 105.245 34.9767 105.021 35.042C104.797 35.1073 104.545 35.14 104.265 35.14C103.826 35.14 103.425 35.0607 103.061 34.902C102.697 34.7433 102.379 34.5287 102.109 34.258C101.838 33.978 101.628 33.656 101.479 33.292C101.329 32.9187 101.255 32.5173 101.255 32.088ZM102.459 32.06C102.459 32.3307 102.505 32.5827 102.599 32.816C102.701 33.0493 102.837 33.25 103.005 33.418C103.173 33.586 103.373 33.7213 103.607 33.824C103.84 33.9173 104.097 33.964 104.377 33.964C104.657 33.964 104.913 33.9173 105.147 33.824C105.389 33.7213 105.595 33.586 105.763 33.418C105.94 33.2407 106.075 33.04 106.169 32.816C106.262 32.5827 106.309 32.3307 106.309 32.06C106.309 31.7893 106.262 31.542 106.169 31.318C106.075 31.0847 105.94 30.884 105.763 30.716C105.595 30.548 105.389 30.4173 105.147 30.324C104.913 30.2213 104.657 30.17 104.377 30.17C104.097 30.17 103.84 30.2213 103.607 30.324C103.373 30.4173 103.173 30.548 103.005 30.716C102.837 30.884 102.701 31.0847 102.599 31.318C102.505 31.542 102.459 31.7893 102.459 32.06Z" fill="#F2F2F2"/>
</svg>
